#!OML:ASF H:\Terrain\Patient Classification 1\Takeo\Monday\TakeoMonday.ASF
:FULLY-SPECIFIED
:DEGREES
194
root 4.17107 17.3645 -0.261968 -169.567 73.0326 -164.439
lowerback 6.37555 2.53716 0.941902
upperback 4.20615 3.56901 -0.38332
thorax 0.845579 1.8716 -1.11329
lowerneck 1.11718 -17.773 -11.477
upperneck 0.51385 -24.2822 15.0465
head 3.20837 -12.0646 4.98193
rclavicle 6.95746e-016 -8.74653e-015
rhumerus 49.9118 45.1987 -63.2761
rradius 44.3136
rwrist 1.0216
rhand -40.0179 49.0471
rfingers 7.12502
rthumb -12.9851 19.4712
lclavicle 6.95746e-016 -8.74653e-015
lhumerus 7.21965 -13.7387 82.6442
lradius 95.678
lwrist 21.7379
lhand -48.1485 25.2159
lfingers 7.12502
lthumb -20.811 54.1199
rfemur -6.21436 -1.53546 10.9306
rtibia 28.695
rfoot -9.23374 -17.7258
rtoes -5.63379
lfemur -10.2112 2.98483 -14.119
ltibia 37.2821
lfoot -18.0263 3.37925
ltoes -3.35723
195
root 4.19219 17.3659 -0.226681 -167.527 72.8516 -162.208
lowerback 6.59341 2.6624 1.39438
upperback 4.08101 3.75777 -0.214563
thorax 0.618888 1.96861 -1.21824
lowerneck 0.867249 -17.9589 -11.4635
upperneck 1.19941 -24.5704 14.7457
head 3.44768 -12.1832 4.80886
rclavicle 3.58806e-014 -3.18055e-015
rhumerus 50.4221 44.9778 -62.6562
rradius 44.0246
rwrist 0.949118
rhand -39.0278 49.3274
rfingers 7.12502
rthumb -12.0305 19.6932
lclavicle 3.58806e-014 -3.18055e-015
lhumerus 6.92535 -13.7017 83.0002
lradius 95.875
lwrist 21.7627
lhand -47.8039 25.6117
lfingers 7.12502
lthumb -20.4799 54.5516
rfemur -5.99378 -1.12657 11.8857
rtibia 28.684
rfoot -9.90526 -18.2453
rtoes -4.42673
lfemur -10.2021 3.15876 -13.1605
ltibia 37.4498
lfoot -18.1676 3.05169
ltoes -3.41418
196
root 4.21082 17.371 -0.191896 -167.322 72.6971 -161.979
lowerback 6.86366 2.86777 1.14636
upperback 3.83469 4.01291 -0.108747
thorax 0.198661 2.08245 -1.01175
lowerneck 0.782988 -18.0112 -11.4497
upperneck 1.81053 -24.6752 14.4093
head 3.61111 -12.2219 4.66877
rclavicle 5.02925e-014 -5.56597e-015
rhumerus 50.5342 44.7444 -61.8362
rradius 43.977
rwrist 0.623168
rhand -38.6213 49.2018
rfingers 7.12502
rthumb -11.6384 19.545
lclavicle 5.02925e-014 -5.56597e-015
lhumerus 6.39359 -13.9515 83.5819
lradius 96.0185
lwrist 21.6599
lhand -47.7687 25.6199
lfingers 7.12502
lthumb -20.4462 54.5634
rfemur -5.90941 -0.834434 12.1663
rtibia 28.8174
rfoot -10.2818 -18.5825
rtoes -4.5397
lfemur -10.2597 2.96424 -12.9084
ltibia 37.5454
lfoot -18.1763 3.31485
ltoes -3.4918
197
root 4.23099 17.3736 -0.166291 -168.008 72.6197 -162.599
lowerback 6.91519 2.82244 0.940571
upperback 3.81636 3.94068 -0.126522
thorax 0.136743 2.04275 -0.914961
lowerneck 0.874698 -17.6992 -11.7595
upperneck 1.82608 -24.2792 14.6878
head 3.62615 -12.0277 4.83284
rclavicle 6.97734e-014 -1.59028e-015
rhumerus 51.6094 44.9738 -60.1739
rradius 44.0833
rwrist 0.205107
rhand -38.8046 49.1649
rfingers 7.12502
rthumb -11.8152 19.5182
lclavicle 6.97734e-014 -1.59028e-015
lhumerus 6.0827 -13.6304 83.8916
lradius 96.1058
lwrist 21.4043
lhand -47.8287 26.1116
lfingers 7.12502
lthumb -20.5038 55.0489
rfemur -5.72726 -0.785024 12.0825
rtibia 28.9915
rfoot -10.3896 -18.5984
rtoes -5.67964
lfemur -10.1343 2.56107 -13.0225
ltibia 37.6043
lfoot -18.2915 3.65559
ltoes -3.08179
198
root 4.25145 17.3724 -0.14144 -168.647 72.6228 -163.125
lowerback 6.84619 2.66178 0.882878
upperback 3.91926 3.7266 -0.178906
thorax 0.275967 1.93839 -0.915531
lowerneck 0.535398 -17.5396 -12.0712
upperneck 2.09362 -24.0674 14.7091
head 3.77292 -11.9041 4.8538
rclavicle -3.97569e-014 1.59028e-014
rhumerus 53.0105 45.4112 -58.6334
rradius 44.0066
rwrist 0.167515
rhand -39.2017 49.7767
rfingers 7.12502
rthumb -12.1981 20.1524
lclavicle -3.97569e-014 1.59028e-014
lhumerus 5.96072 -12.9726 83.9555
lradius 96.1307
lwrist 21.2094
lhand -47.6589 27.9474
lfingers 7.12502
lthumb -20.3406 56.9022
rfemur -5.44718 -0.988264 12.0135
rtibia 29.11
rfoot -10.4477 -18.3128
rtoes -8.32712
lfemur -9.93058 2.17727 -13.1263
ltibia 37.6544
lfoot -18.4679 3.75641
ltoes -2.29334
199
root 4.26655 17.3592 -0.109652 -168.801 72.589 -163.231
lowerback 6.83236 2.63984 0.915791
upperback 3.91476 3.69885 -0.279822
thorax 0.28722 1.92619 -1.03479
lowerneck 0.432785 -17.6776 -12.1496
upperneck 2.34268 -24.2684 14.6098
head 3.88602 -11.9952 4.78879
rclavicle 2.49475e-014 -7.95139e-016
rhumerus 53.7041 45.484 -57.8998
rradius 43.7152
rwrist 0.399781
rhand -39.6881 50.8283
rfingers 7.12502
rthumb -12.6671 21.2324
lclavicle 2.49475e-014 -7.95139e-016
lhumerus 5.8406 -12.7585 83.9874
lradius 96.0548
lwrist 21.2517
lhand -47.4934 28.0957
lfingers 7.12502
lthumb -20.1815 57.0674
rfemur -5.23547 -1.05051 12.154
rtibia 29.1252
rfoot -11.1416 -18.2763
rtoes -7.49686
lfemur -9.90616 2.00593 -13.0333
ltibia 37.7315
lfoot -18.3787 3.80618
ltoes -2.48116
200
root 4.2832 17.3483 -0.0752757 -168.673 72.5886 -163.175
lowerback 6.69897 2.67713 0.9901
upperback 3.88973 3.74953 -0.434501
thorax 0.351745 1.95398 -1.23094
lowerneck 0.706902 -17.6325 -12.3047
upperneck 2.16222 -24.239 14.9684
head 3.85049 -11.991 4.93988
rclavicle 8.44835e-015 -7.95139e-016
rhumerus 54.1824 45.3673 -57.2293
rradius 43.6031
rwrist 0.620658
rhand -39.8763 51.4902
rfingers 7.12502
rthumb -12.8485 21.9057
lclavicle 8.44835e-015 -7.95139e-016
lhumerus 5.74532 -12.8473 83.9932
lradius 95.9698
lwrist 21.4148
lhand -47.7378 26.5338
lfingers 7.12502
lthumb -20.4165 55.4805
rfemur -5.18788 -0.823374 12.3389
rtibia 29.0797
rfoot -12.8118 -18.3369
rtoes -0.900377
lfemur -10.0285 2.05151 -12.8609
ltibia 37.8048
lfoot -18.2968 3.68052
ltoes -3.17793
201
root 4.30229 17.3514 -0.0460841 -169.313 72.7221 -163.914
lowerback 6.52413 2.71201 0.873836
upperback 3.91928 3.78951 -0.704247
thorax 0.491154 1.97683 -1.43391
lowerneck -0.0021451 -17.8428 -11.6768
upperneck 2.70504 -24.459 14.0591
head 3.95882 -12.0689 4.50893
rclavicle -5.29761e-014 2.3059e-014
rhumerus 54.798 45.2541 -56.4853
rradius 43.5247
rwrist 0.783044
rhand -40.0325 51.713
rfingers 7.12502
rthumb -12.9991 22.138
lclavicle -5.29761e-014 2.3059e-014
lhumerus 5.70909 -12.9705 83.7934
lradius 95.8672
lwrist 21.8633
lhand -47.9948 25.7639
lfingers 7.12502
lthumb -20.6634 54.684
rfemur -5.18012 -0.633076 12.1764
rtibia 29.0035
rfoot -13.3206 -18.216
rtoes 0.229727
lfemur -10.0722 2.22951 -12.9882
ltibia 37.8329
lfoot -18.3897 3.49525
ltoes -3.51782
202
root 4.3248 17.3529 -0.0182313 -170.515 72.9261 -165.128
lowerback 6.52055 2.74455 0.374577
upperback 3.88046 3.80494 -0.817514
thorax 0.428905 1.97657 -1.27447
lowerneck 0.57559 -17.5194 -10.86
upperneck 1.58034 -23.9208 13.6372
head 3.31236 -11.8583 4.48432
rclavicle 3.21037e-014 -2.46493e-014
rhumerus 55.1112 45.4412 -56.0403
rradius 43.2212
rwrist 1.11239
rhand -40.027 51.7323
rfingers 7.12502
rthumb -12.9938 22.157
lclavicle 3.21037e-014 -2.46493e-014
lhumerus 5.34203 -12.8474 83.9871
lradius 95.7325
lwrist 22.1605
lhand -47.9175 25.6759
lfingers 7.12502
lthumb -20.5891 54.6039
rfemur -5.05238 -0.527825 11.8013
rtibia 28.9025
rfoot -12.6778 -18.0106
rtoes -3.9613
lfemur -9.91032 2.51868 -13.2706
ltibia 37.7711
lfoot -18.4267 3.44465
ltoes -3.70877
203
root 4.34527 17.3517 0.0110271 -171.01 73.079 -165.581
lowerback 6.6595 2.76978 -0.0781154
upperback 3.72549 3.80502 -0.64339
thorax 0.150962 1.963 -0.858167
lowerneck 1.04518 -17.2861 -11.9467
upperneck 1.49554 -23.6851 14.3283
head 3.39902 -11.7594 4.86167
rclavicle -1.85864e-014 -2.38542e-015
rhumerus 55.323 45.8734 -55.1955
rradius 43.0125
rwrist 1.13886
rhand -39.7803 51.9548
rfingers 7.12502
rthumb -12.756 22.3645
lclavicle -1.85864e-014 -2.38542e-015
lhumerus 4.58835 -12.6248 84.7453
lradius 95.7213
lwrist 22.2279
lhand -47.999 24.9514
lfingers 7.12502
lthumb -20.6675 53.871
rfemur -4.96246 -0.451937 11.7186
rtibia 28.8411
rfoot -12.6476 -17.9589
rtoes -3.8963
lfemur -9.67045 2.58556 -13.3088
ltibia 37.6164
lfoot -18.3631 3.63198
ltoes -4.03899
204
root 4.36138 17.3573 0.038788 -170.278 73.1219 -164.675
lowerback 6.75819 2.74921 0.1555
upperback 3.70855 3.78986 -0.526295
thorax 0.085642 1.95698 -0.873335
lowerneck 0.913677 -17.1823 -12.7
upperneck 1.93072 -23.6038 14.6258
head 3.66536 -11.7051 5.00223
rclavicle 7.28546e-014 -2.54444e-014
rhumerus 55.7907 45.9853 -54.1659
rradius 42.8917
rwrist 0.958074
rhand -39.6607 52.3444
rfingers 7.12502
rthumb -12.6407 22.7469
lclavicle 7.28546e-014 -2.54444e-014
lhumerus 4.00677 -12.641 85.1611
lradius 95.894
lwrist 22.5514
lhand -48.2028 24.1055
lfingers 7.12502
lthumb -20.8632 53.0036
rfemur -4.86993 -0.581597 12.1549
rtibia 28.7951
rfoot -12.6968 -18.0218
rtoes -2.81282
lfemur -9.37739 2.27661 -12.9381
ltibia 37.4844
lfoot -18.3129 4.0272
ltoes -4.34285
205
root 4.38329 17.367 0.073653 -169.195 73.1719 -163.457
lowerback 6.57576 2.73255 0.67296
upperback 3.8613 3.80305 -0.63546
thorax 0.385305 1.9772 -1.2576
lowerneck 0.542151 -17.1774 -12.3663
upperneck 2.09076 -23.5595 14.3302
head 3.69014 -11.6667 4.84926
rclavicle 7.22582e-014 -1.03368e-014
rhumerus 55.8043 45.6515 -54.3774
rradius 42.503
rwrist 1.47586
rhand -39.7136 53.0343
rfingers 7.12502
rthumb -12.6916 23.4399
lclavicle 7.22582e-014 -1.03368e-014
lhumerus 3.80874 -12.7286 85.084
lradius 96.0006
lwrist 22.4273
lhand -47.6492 24.8707
lfingers 7.12502
lthumb -20.3313 53.8265
rfemur -4.77054 -0.823901 12.7122
rtibia 28.6769
rfoot -12.5525 -18.0677
rtoes -2.90653
lfemur -9.18023 1.9567 -12.449
ltibia 37.454
lfoot -18.4502 4.27659
ltoes -4.12159
206
root 4.40485 17.3602 0.114932 -168.688 73.3021 -162.966
lowerback 6.34444 2.74964 0.825442
upperback 3.94357 3.83602 -0.768447
thorax 0.618396 2.00081 -1.46417
lowerneck 0.282371 -17.2617 -11.8604
upperneck 2.19267 -23.636 13.9538
head 3.665 -11.6942 4.65419
rclavicle 1.14003e-013 -1.35174e-014
rhumerus 55.7818 45.3064 -54.4181
rradius 42.3134
rwrist 1.60394
rhand -39.8892 53.7538
rfingers 7.12502
rthumb -12.861 24.1701
lclavicle 1.14003e-013 -1.35174e-014
lhumerus 3.80059 -12.6839 85.0156
lradius 95.8448
lwrist 21.898
lhand -46.5929 26.5228
lfingers 7.12502
lthumb -19.3158 55.5835
rfemur -4.73612 -1.00927 13.0089
rtibia 28.4873
rfoot -13.0599 -18.1467
rtoes -0.555186
lfemur -9.17838 1.98243 -12.1575
ltibia 37.5369
lfoot -18.6038 4.28551
ltoes -4.40562
